/* XPM */
static char *_0008_53e2f21b90691258e3479958c91c1fdb5049d5af6a2f8fa895f979f5699e8db7[] = {
/* columns rows colors chars-per-pixel */
"128 128 16 1 ",
"  c #0E411C",
". c #007309",
"X c #3B513F",
"o c #745F4E",
"O c #407A5E",
"+ c #C30000",
"@ c red",
"# c #FF5D00",
"$ c #A77F47",
"% c #009B31",
"& c #42A27E",
"* c #00E54A",
"= c #ED9D67",
"- c #8E988F",
"; c #D0D0D0",
": c None",
/* pixels */
"::::::::::::::::::::::::::::::::::::::::::::::::::::::::::::::::::::::::::::::::::::::::::::::::::::::::::::::::::::::::::::::::",
"::::::::::::::::::::::::::::::::::::::::::::::::::::::::::::::::::::::::::::::::::::::::::::::::::::::::::::::::::::::::::::::::",
"::::::::::::::::::::::::::::::::::::::::::::::::::::::::::::::::    ::::::::::::::::::::::::::::::::::::::::::::::::::::::::::::",
":::::::::::::::::::::::::::::: :::::::::::::::::::::::::::::::  .. :::::::::::::::::::::::::::::::::::::::::::::::::::::::::::::",
":::::::::::::::::::::::::::::  :::::::::::::::::::::::::::::  ... ::::::::::::::::::::::::::::::::::::::::::::::::::::::::::::::",
":::::::::::::::::::::::::::: . :::::::::::::::::::::::::::  .%%. :::::::::::::::::::::::::::::::::::::::::::::::::::::::::::::::",
"::::::::::::::::::::::::::: . ::::::::::::::::::::::::::  .%%.. :::::::::::::::::  :::::::::::::::::::::::::::::::::::::::::::::",
":::::::::::::::::::::::::: %. ::::::::::::::::::::::::  ..%..O ::::::::::::::::: X. ::::::::::::::::::::::::::::::::::::::::::::",
":::::::::::::::::::::::::: .O :::::::::::::::::::::   O.%%.OO :::::::::::::::::: XX. :::::::::::::::::::::::::::::::::::::::::::",
"::::::::::::::::::::::::: %.O ::::::::::::::::::   OO..%..O& ::::::::::::::::::: XX.%  :::::::::::::::::::::::::::::::::::::::::",
":::::::::::::::::::::::: %.O& :::::::::::::::   &&OX.%%.XO& :::::::::::::::::::: OO.%.X  ::::::::::  :::::::::::::::::::::::::::",
"::::::::::::::::::::::: %.XO& :::::::::::    &&&OO..%..XO&& ::::::::::::::::::: O&OX.%XXX   :::::  X. ::::::::::::::::::::::::::",
"::::::::::::::::::::::: %.XO&& ::::::    &&&&&OOX.%%.XXO&& ::::::::::::::::::  XXOXXX.%.XXOO     OXXX. :::::::::::::::::::::::::",
":::::::::::::::::::::: %.XO&O&&      &&&&&&&&OX..%..XOOO& :::::::::::::::::: OXXXXXXXX.%.XXO&OXOO&OXX.% ::::::::::::::::::::::::",
":::::::::::::::::::::: %.XO&&O&&&&&&&&O&&OOOOX.%%.XXOO&& :::::::::::::::::: &OXXOXOXXXX.%.XXOOXXXXXXOX.% :::::::::::::::::::::::",
"::::::::::::::::::::: %.XXOO&O&&&O&&OOO&&OOXX.%..XXOO&&& :::::::::::::::::: &OOXXXXXOOX.%.XXXOXXOXXO&X.% :::::::::::::::::::::::",
"::::::::::::::::::::: %.XXOOOOO&OOO&O&OOOXX..%.XXXOO&O& :::::::::::::::::::: &OXXO&XXXXX.%.XXXXX&OXOOXX.% ::::::::::::::::::::::",
":::::::::::::::::::: %.XXO&OO&&O&&OOOO&OXX.%%..XXXXOO&& :::::::::::::::::::: &OXXXOOX&OX.%%.XXXXOOXXXXX.%. :::::::::::::::::::::",
":::::::::::::::::::: %.XXOOXO&&O&&OXXOOXX.%..XOXOOO&&& :::::::::::::::::::::: &OXXXOXOXXX.%.XXOXXXXXOOX.%. :::::::::::::::::::::",
"::::::::::::::::::: %.XOXOXXOO&OOOXXOXX..%.XXOOXO&&O&& ::::::::::::::::::::::  OXXXXXOXOX.%%.XOOXXXXO&XX.%. ::::::::::::::::::::",
"::::::::::::::::::: %.XXXOXOXOOOXXOXXX.%%.XOOXXXXO&OO& ::::::::-::::::::::::: X OXXXXXXO&X.%.XXOXO&OXOXX.%. ::::::::::::::::::::",
":::::::::::::::::: %.XOXXOOXO&&OXO&OX.%%.XO&OXOXOOOO& ::::::::::::::::::::::: OX OXXOXXXOX.%%.XXXXOOXXXX.%.X :::::::::::::::::::",
":::::::::::::::::: %.X&OXOXXOOOOXOXX.%%.XXXXXO&OO&&O& ::::::::::::::::::::::: OX OXXOOXXOXX.%.XXXXOXXXOX.%.XX ::::::::::::::::::",
"::::::::::::::::: %.OXOOXXXXXXXXXXX.%%.XOXOOXOOXO&OO& :::::::::::: :::::::::: OXXOXXXOOXXXX.%%.XOXXXXXOX.%.XXO :::::::::::::::::",
"::::::::::::::::  %.XXXXXOOXXOOOO..%%.XOOXO&XXX&OO&&& ::::  :::::  :::::::::: &OXXXXXOXOXXXX.%.XOOX&OX&OX.%.XO&  :::::::::::::::",
":::::::::::::::  %.XXOO&X&OOXXOX.%%%.XXOXXOOXXOOOOO& ::::  ::::: o ::::::::: &&OOXXXXXXXXXXX.%%.XOXOOXOOX.%.XOXOX  :::::::::::::",
":::::::::::::: % %.XXXOOXXXXXXX.%*%.XOXXOOXXXOO&&O&& ::::  ::::: o ::        OOOOXXOOXXXXOOXX.%.XXXOXXXXX.%.XOXXXXX   ::::::::::",
"::::::::::::: % %%.OOXOOXOXOOO.%*%.XXXOO&OOOXOXO&&& :::: o :: : oo : ooo     OO&OXXO&XXOXXOXX.%%.XXXXXOXX.%.XXXXOOXXO&    :::  :",
":::::::::::: %. %.XOOXXXOXXOO.%*%%.OOXOOXXXOXXX&O& ::::: o :  : oo  oo  oo  &O&OXXXXXXO&OXXOXX.%.XOXXXOOX.%.XXXO&OXXOOXXXO   . :",
"::::::::::: %. %%.XXOOXOOXXX.%%%%.XXOOXXOXO&XXXX& ::::: oo  o : oo oo oo   &&&OXX&OXOOXXOXXXXX.%%.XOOXXOX.%.XOXXXXXXXXXOX&OXX. :",
":::::::::: %.X %.XOXXXXXOXO.%%*%.XXXXXOXOXXXXX&& :::::: o : o  ooo o o     OOOXXXOOXOXXXOXXOOX.%%.XOOXXOX.%.XO&OOXOXXOXXXOXX.% :",
":::::::::: %. %%.XXOOXOOXOX.%*%.OXOXOXOX&OXXXXX :::::: oo  oo  oo o       OO&OOXXXXOXXOOXXXOXXX.%.XXXXXXX.%.XXOOXXXOOOXXXXXX.% :",
"::::::::: %.O %.XOXOOXOOXX.%*%.XXXXOXO XXOXXX  :::::: oo   o  ooo  ...   &OOOOOXXXXXOXXXOXXXXOX.%%.XXOOXX.%%.XXXXXXO&XXXOXXX.% :",
":::::::: %.O %%.XOXXXXXOO.%*%.XOXOXXX XXXXX  X ::::: ooo  oo ooo .....  &&OOXOOOOXXXOOXXXXXXXOX.%%.XXOOXX.%%.XXOOXXOOOXXXOX.% ::",
"::::::: %.XO *%.XXXOOOXX.%**%.OOXXXXO XXOXXXXO :::: ooo ooo oo  ..%%..  OOOXXXXXXOXXXXXXXOXOXXXX.%.XXOXOX.%%.XXXOOXXXXXOOOX.% ::",
"::::::: %.OO %..OXXOOXX  **%.XXXOXXO& XOOXXOXO ::   oo ooo    ..%%%..  OXX XXXOOXXX   XXOOXXXXXX.%%.XXXXXX.%.XOXOOXOOXXOOXX.% ::",
":::::: %.XO %%.XXXXXX  .. *%.XXOXXO& XXXXXO&O :    oo  oo   ..%%%...  OXX &&OXOXXX ... OOXXXXOXX.%%.XXXOXX.%.XOXXXXOOOXOXX.% :::",
":::::: %.XO *%.XOXOX  .%. %.XOXOOOOO XOXXOO&O  X o oo oo   ...%%..... OXX &OXXXX  .%%.. OXXOXXXX.%%.XOXOXX.%.XXXXOXXOXXXXX.% :::",
"::::: %.XOO %.XOOXX  .*%. %.XXOXXO&O XXOOXXO  X o oo oo   .%%%%..%%..  X &OXXXX ..%**%. XXXOOXXXX.%%.XXXOX.%.XXOXOOXOXXOX.%% :::",
"::::: %.OO %%.XOXX ..*%%.. .XXXXXOOO XXOXX&O X oo oo     .%%*%.%%%%%.   &OOOOX .%%%*%%%. XXXXXXOX.%%.XXXXX.%%.XXXXOXXXXOX.% ::::",
":::: %%.XO *%.XXO ...%%%.. .OOXXOOO XXXXXXOOXX o oo   ...%.%%.%****%.  &O&OOX ..%*%%**%%.  XXXXOX.%%.XXOXX.%%.XXXXXOOXOOX.% ::::",
":::: %.OOX %%.XX .%.%%%.... XOXXOOO XXXXXXO X oo o   .%%.%%*%%***%%.. &OOOXX ..%**%%%%*%%.. XXXXX.%%.XXXXX.%%.XXOXXOOXXX.%% ::::",
":::: %.XX %%.XO .%.%%*% ..%. XXXOO& XXXOXXOXX oo o  .%..%**%%%%*%%..  &OOX  ...%*%% .%%%%%.. XXXX.%%%.XXXO.%%.XXOXXXXOXX.% :::::",
"::: %%%XX *%.X .%..%*%. .%%. XXXOO& XOXOOXXXX  o  ...%%%%%%...%%%.  &&OOX ....%%*%% .%%%*%.%. XXXX.%%.XXXX.%%.XXXXXXXXX.%% :::::",
"::: %%.XO *%.O .%.%%*%. .%%. XXXXOO XXXXXXXX o    .%..%*%....%*%. &&&%%  .%%.%%%*%. .%%**%%.%. XXX.%%.XOXX.%%.XXXOOXXXX.% ::::::",
"::: %.OX %%%. .%%.%*%.. .%*%. XOOOO  XOXOOX o o ...%.%%%..%%%**% &OOO& %%%%%%%*%%%. ..%*;*%%%%. XX.%%.XXXX.%%.XOXOOXXX.%% ::::::",
"::: %.XO *%.X .%%%%*%. ..%*%. XXXO&  XXXOXX o o .%%%%*%..%%***%. &OOO .%%%%%**%%%%. ..%*;**%%%. XX.%%.XXOX.%%.XXXXXXOX.%% ::::::",
":: %%.OO *%. .%*%***%. .%**%. XXXOO   XXOX oo  ..%..%*%.%%**%%% OOOXX .%%**%**%%%.   .%%*;**%%%. X.%*%.XXX.%%.XXXOXXX.%% :::::::",
":: %%.OX %%. .%*%**%.. .%**%. XOOO&O   XXX ooo ..%.%%%%%%**%..% XOOX .%%****%%%%%.    .%%**;*%.. X.%*%.XXX.%%.XOXXXX.%*% :::::::",
":: *%.X %%%. .*%***%. ..%**%. XXOOO&       oo .%.%%%%...%%%%%...XXOX .%**;*%%%*%.      ..%%**%%.. .%*%.XXX.%%.XXXXOX.%% ::::::::",
":: *%%X *%% .%*%**%.. ..%*%%.  XXXOO      o   .%%%%%...%*****%...XXX .%*;;*%*%%%.        .%%**%.. .%*%.XX.%*%.XXOXX.%% :::::::::",
":: *%%X *%. .%%%**%. $ .%*%...  XXXXO   o oo .%%.%%.%%%*;;*%%%.. XX .%%*;****%%.          ..%*%%. .%*%.XX.%*%.XXXX.%*% :::::::::",
":: *%.X *%. .%%**%. $$ .%*%....  XXXX   o o ....%**%%**;**%%%... XX .%****;*%%..    ....    .%*%.. .%%.XX.%%.XXXX.%*% ::::::::::",
":: *%.O *%. .%**%. $=$ .%%%..%%.  XOXO  oo  .%%%**%%%%%**%%...   XX .%**;;**%%..   ........  .%*%. .%%.XX.%%.XXX.%*% :::::::::::",
":: *%. %%% .%**%. $$=$ ..%%.%**%.  XXXX oo  .%.%*%..%%%%**.....  XX .%****%%%.. -  ....  ...  .%%. .%*%..%*%.XX.%*%% :::::::::::",
":: *%% *%% .%*%. $$o$=$ .%*%***%%.  X  . o ....%%.%%***%%*%%%.. XX ..%*%%%..... -  ...   ....  .%%. %*%..%*%.X.%*%% ::::::::::::",
":: **% *% .%*%. $=$$$$$ .%**%***%.    o  oo.%%%%..%*;*******%%. X  ..%%%%..... --   ..   .....  .%. %*%..%*%..%*%% :::::::::::::",
":: **% *% .%%. $$$o$=$= .%****;*%%.  X o o ..%%%.%****%%%%%**%.X  ..%*%%....  --;-  .  .. .%%..  .%..%%.%*%.%%*%% ::::::::::::::",
":: **% *% .%. ooooo$$$$ .%*;**;**%.  . o   .%.%%%**%%......%%.  ....%**%%%..  -;;-  ..... .%%%.. ..% .%%**%.%**% :::::::::::::::",
":: %** * .%%. oo$o$o$o$ .%**%****%.  . o  ..%.%*%*%...%%%%%.. ..%%%.%***%..          .... .%*%%.  .%. .%**%.%*% :::  :::::::::::",
"::: ** % .%. oooo$=$o$= .%**%****%.  . oo .%%%%%%%..%%****%. .%%**%%%**%..    .....  .... .%**%..  .. .%*%.%*% :::  ::::::::::::",
"::: * %% .%. o$$oo$o$$$ .%*%**%%%%. ..  o.     %%..%**;*%%. .%%**%*%*%%..  ....%%..   .    .%*%%.  .. .%%%.%% :::  :::::::::::::",
"::: * *% .%. o$=$$oooo$ ..%%*%%.... ... o ooo ..%.%*;;***%. .%**%*%%%%..  .%..%.%%..       .%**%.  .%. ...%.   ::  : :::::::::::",
"::: * *  .. ooo$=$$o$$.. .%.%%%%%.    .. oo  ..%..%*;***%. .%%****%.%..  .%%.%%..%%..      .%%*%. .%%%. .%.  oo  .  o ::::::::::",
"::: * %  .. o$o$o$=$..%% ...%**%%%  oo .oo %..%%.%*;**%%.. .%*;**%%...  .%%*%*%. .%%.       .%*%. .%*%. ..  oo   . o  ::::::::::",
"::::  %  .. ooooo...%%    ..%*;*% .. oo o %..%%..%*;**%... .%***%%...  .%**%%*%. .%%.    oo .%*% .%%**%%%. .   o ..  o :::::::::",
"::::   . .%. oo..%%%  ::: ..%**%% ... oo ... %%.%*;*%%... ..%*%*%....  .%**%**%. .%%%.  oooo .%% .%****%. ... ooo ..  o :  :::::",
":::: % . .%%. .%%%  :::::: ..%*% ..%.. o  .%  %%***%%.... ..%%%%..%.. .%**%%**%. .%*%.  ooo$ .%% .%*;**%. .%%.       .   oo ::::",
"::::  .%%%*%. .%% ::::::::: .%%% ..%%. o  .% o %*%**%.... ...%%.%%%.. .%**%%*%. ..%*%.  oo$$$ .% .%*;;*%. .%*%.    oo  .. o ::::",
"::::: .%***%. .. :::::::::  ..%% .%%%..  ..% o %%**%.... .....%%%%..  .%*%%.%%. ..%%%.   oo$$ .% ..%   . .%**%..  oo  o .. o :::",
":::: .%%*;*%. . ::::::::: % ... ..%%%..  ..% o %%*%%... ..%%..%%....  .%*%.... .%..%%%.  oo$o .%% . --- .%%***%%..  oooo . o :::",
":::: .%*;*%. . :::::::::: %%  . ...... o  .. oo %%%...  .%%........    %%...  ..%%..%%. : ooo$ .%  --;- ..%%%%%*%...   o ..   ::",
"::::    ;*%.  ::::::::: : .%%.       . oo .. oo %%... ..%....          ...  : ..%%%%*%. :: oo$ .%% -;;- oo...%**%%%%...   ... ::",
":::: ;;- *%. ::::::::::   ..%%.   ooo   o .. oo %..%%%%%%%   .....      . :::: ..%*%%%. ::: oo .%% -;;- $ooo..%%%.%*%%....%%.. :",
"::: ;;;-- . :::::::::::     ..%.    oooo   . oo ...%...%  .......%...     ::::: ..%*%%. :::: o .%% ;;;- oooooo....%%%%%%%.%*%. :",
":: -;;;-- . ::::::::::: ....  .....   ooo   ooo ...%%......     ...%%.... :::::: ..%    :::::  .%% ;;-  oo$$$$ooo...%.%**%%%%. :",
":: ;;;--   :::::::::::: ..%...    . .. oo   ooo ........%  .....  ...... :::::::  . ....   ::: .% -;;- . o$$  $$$ooo...%%%...o :",
":: ;;-- :::::::::::::::  .%%%%......... oo  oo ..  ........%%%%%..   .  :::::::::  ..%%%..     .% ;;- ...   -- $oo$$ooo.....oo :",
": -;;- ::::::::::::::::: .%*%%%%...%%%. oo  oo ...   ...%%%%***%%%...      :::::: .%%%  %%.    .. ;- ..... %;;- o   $$oooooo$o :",
": ;;-- ::::::::::::::::: .%***%..%%**%.. o ooo .... -  ..%%***;**%%%%..... ::::: .%**%%  %.  ... ;- ..%.%. %;;-  --- $o$$$$oo  :",
": ;;- :::::::::::::::::: .%** %.%%***%.%.  ooo ..... -- ..%%%**;;***%%%%.       ..%%%%%..... ... - ..%%%%. %-;- -;;- oooooo   ::",
": ;;- ::::::::::::::::::  .%*  .%*;*%%%*%. ooo ... .. ;- ..%%%%******%%..       .%%....    . .. - ..%%*%. %.-;;- --;-        :::",
": ;;- ::::::::::::::::::: ..%  .%***%%**%.ooo ...  ... ;- ...%%%%%%%%%..       ..%..;        ..  ..%**%.. .. -;-   --  :::::::::",
": ;- ::::::::::::::::::::  ...  **%%    .%.oo .. o  ... ;- .....%%%%...       ..%%.;;;;      .  ...%**%...... --    -  :::::::::",
": ;- :::::::::::::::::::::  ..  %%%%* oo  .oo .. o  .... ;- ..........       .%%%.   ;;; ;;     ....%%%%%%... --     - :::::::::",
": ;- ::::::::::::::::::::::  . - .%*;*  oo  o .. o   ... -;- .......       ..%*%.      ;;  ;       ........    -       :::::::::",
": -- :::::::::::::::::::::::      %**%%% ooo  . oo  o ... ;-- ...          .%**%.;      ;   ;        ....      -     : :::::::::",
":: - :::::::::::::::::::::::  o - %%%%***  ooo. o   o .... ;-             .%*%%.;;;                            -    ::::::::::::",
":: - :::::::::::::::::::::: % o -- .%*;*%.% ooo o o o  ... -;-            .%**%.   ;  + ;;             ::::::::  :::::::::::::::",
"::: - :::::::::::::::::::: %%. o -- %*%%%%*    oo o oo ... -;-       ..  .%%**%.     ++   ;      :::::::::::::: ::::::::::::::::",
"::::   :::::::::::::::::  %%.. o -;- %.%*;*%...oo o  o  .   -;-     %%%. .%*%%.;      +       ::::::::::::::::::::::::::::::::::",
"::::::::::::::::::::::: %%...% o$ -;- .%***%%%...ooo oo     -;-   .%*%.. .%**%.;;   +++;;   ::::::::::::::::::::::::::::::::::::",
"::::::::::::::::::::     .  .. o$ -;;-  %%%**%.....o oo     -;;- .%%%.. .%**%.       +    ::::::::::::::::::::::::::::::::::::::",
"::::::::::::::::::  ;; ;- .% % o$= -;;-- .%%*%..%..  oo      -;  %%..  .%*%*%.;     ++; ::::::::::::::::::::::::::::::::::::::::",
"::::::::::::::::: ;;- ;;;- ..% o$$$ -;;;-  %%..%%%..   o     -- %%.  #  *;*%.;;;   ++;;; :::::::::::::::::::::::::::::::::::::::",
"::::::::::::::::: ;-- ;--- .%% o$ $$ -;;;--   ......           %%. ###  %*%.       +    ::::::::::::::::::::::::::::::::::::::::",
":::::::::::::::: --  ;;;-- .%% o$ o$= -;;;;---              .. %.  #   *%%.;      ++; ::::::::::::::::::::::::::::::::::::::::::",
":::::::::::::::: - : ;--  ..%%. o o$== --;;;;-----      ...... ..    * *%.;;;     +;;; :::::::::::::::::::::::::::::::::::::::::",
"::::::::::::::: - :: ;-    .... o o$===  -;;;;;;;------ .%%%%..   *** ..%.      +++   ::::::::::::::::::::::::::::::::::::::::::",
":::::::::::::::  :: --   ::     oo o$=$$$ --;;;;;;;;;-- %***%%%%%%%  ....;       ++; :::::::::::::::::::::::::::::::::::::::::::",
"::::::::::::::: :   -- ::::      o o$$$$o$  --;;;;;;;;- ;;******%%%%. ...;;     ++;;; ::::::::::::::::::::::::::::::::::::::::::",
":::::::::::::::     - :::        o o$o oo$=$ ----;;;;; ;;;;;***%%... %%..      +++   :::::::::::::::::::::::::::::::::::::::::::",
"::::::::::::::::::: - :     :::: o o$o oo$=$o  ------- ******%%...  %*%.;       ++ :::::::::::::::::::::::::::::::::::::::::::::",
":::::::::::::::::::      :::::::: o oo oo$==$oo   --- .%%**%%%..  %%**%.;;     + +; ::::::::::::::::::::::::::::::::::::::::::::",
":::::::::::::::::::   ::::::::::::  oo ooo$=$oooo     ..%%%%%.. %%***%.. ;;    ++;;; :::::::::::::::::::::::::::::::::::::::::::",
"::::::::::::::::::: ::::::::::::::: o$o oo$=$$o  ----- .....%. %**;*%%.;      + +   ::::::::::::::::::::::::::::::::::::::::::::",
"::::::::::::::::::::::::::::::::::: o$o oo$$   --;;;;;-   .%. %*;;**%..;      +++; :::::::::::::::::::::::::::::::::::::::::::::",
"::::::::::::::::::::::::::::::::::::  oo    ---;;;;---;   .%. %*;**%%.;;;     ++;;;  :::::::::::::::::::::::::::::::::::::::::::",
"::::::::::::::::::::::::::::::::::      ----;;-----    -- %%%.%***%%..;;;;;  ++  ;;;; ::::::::::::::::::::::::::::::::::::::::::",
"::::::::::::::::::::::::::::::::     ---------      ---;- %*%%%%%%%..   ;;;;; + :      ::  ::::::::   ::::::::::::::::::::::::::",
":::::::::::::::::::::::::::::::::::::         ooo --;;;- %***%%%%...            ::::::::: @ :::::: @@ ::::::::::::::::::::::::::",
"::::::::::::::::::::::::::::::::::::::::: oo$$ooo -;;;;--  ;*%.....      @@@  @@ ::::::::: @ :::: @  :::::::::::::::::::::::::::",
"::::::::::::::::::::::::::::::::::::::::: oo$$oo --;;;;---- *% ..  ;   @@@@@@@ @@  :::::::: @ :: @ :::::::::::::::::::::::::::::",
":::::::::::::::::::::::::::::::::::::::::: oo$$o --;;;;-- -  %.    ;  ;    @@@@ @   : :: :: @ :: @ :::::::::::::::::::::::::::::",
"::::::::::::::::::::::::::::::::::::::::::: o$$o ---;;;;- -- ... oo ; ;      @@@ @@  ;  ;   @ : @ ::::::::::::::::::::::::::::::",
"::::::::::::::::::::::::::::::::::::::::::: oooo ---;;;;--  o   o$$=  ;; ;  ; @@   @    ;  @@  @@ ::::::::::::::::::::::::::::::",
":::::::::::::::::::::::::::::::::::::::::::: oooo ---;;;;-- ooooo$$$==   ;; ;   ; @  @@   @   @@ :::::::::::::::::::::::::::::::",
":::::::::::::::::::::::::::::::::::::::::::::  ooo  ---;;;--  oo$$$$$$==    ;;  ; @ @      @@@@   ::::::::::::::::::::::::::::::",
":::::::::::::::::::::::::::::::::::::::::::::::       ----;;--  oooo$$$$====   ;;  ;  ; @@@@@@ :   :::::::::::::::::::::::::::::",
"::::::::::::::::::::::::::::::::::::::::::::::::::::::   ---;;--  oooo$$$$$$=== ; ;;  ;  @@@      ::::::::::::::::::::::::::::::",
":::::::::::::::::::::::::::::::::::::::::::::::::::::::::   ---;--   oooo$$$$$$=   ; ;; ;        :::::::::::::::::::::::::::::::",
"::::::::::::::::::::::::::::::::::::::::::::::::::::::::::::    -----   ooooo$$$===  ;;;;       ::::::::::::::::::::::::::::::::",
"::::::::::::::::::::::::::::::::::::::::::::::::::::::::::::::::           ooo$$$$$==     $o  ::::::::::::::::::::::::::::::::::",
":::::::::::::::::::::::::::::::::::::::::::::::::::::::::::::::::::::::   ooooooooo$$===$$oo  ::::::::::::::::::::::::::::::::::",
"::::::::::::::::::::::::::::::::::::::::::::::::::::::::::::::::::::::::::         ooooooo   :::::::::::::::::::::::::::::::::::",
":::::::::::::::::::::::::::::::::::::::::::::::::::::::::::::::::::::::::::::::::::         ::::::::::::::::::::::::::::::::::::",
"::::::::::::::::::::::::::::::::::::::::::::::::::::::::::::::::::::::::::::::::::::::::::::::::::::::::::::::::::::::::::::::::",
"::::::::::::::::::::::::::::::::::::::::::::::::::::::::::::::::::::::::::::::::::::::::::::::::::::::::::::::::::::::::::::::::"
};
