/* XPM */
static char *_1238_b9964bffd38869b43e08a19ce1b7ca7cb8430ffb4de4ea1ac29af716cb5f4404[] = {
/* columns rows colors chars-per-pixel */
"32 32 7 1 ",
"  c #181425",
". c #BE4A2F",
"X c #F77622",
"o c #FEAE34",
"O c #FEE761",
"+ c white",
"@ c None",
/* pixels */
"@@@@@@@@@@@@@@@@@@@@@@@@@@@@@@@@",
"@@@@@@@@@@@@@@@@@@@@@@@@@@@@@@@@",
"@@@@@@@@@@@@@@@@@@@@@@@@@@@@@@@@",
"@@@@@@@@@@@@@@@@@@@@@@@@@@@@@@@@",
"@@@@@@@@@@@@@@@@@@@@@@@@@@@@@@@@",
"@@@@@@@@@@@@@@@@@@@@@@@@@@@@@@@@",
"@@@@@@@@@@@@@@@@@@@@@@@@@@@@@@@@",
"@@@@@@@@@@@@@@@@@@@@@@@@@@@@@@@@",
"@@@@@@@@@@@@@@@@@@@@@@@@@@@@@@@@",
"@@@@@@@@@@@@@@@@@@@@@@@@@@@@@@@@",
"@@@@@@@@@@@@@@OOOOOO@@@@@@@@@@@@",
"@@@@@@@@@@@O++oooooooo@@@@@@@@@@",
"@@@@@@@@@@OOOooooooooo@@@@@@@@@@",
"@@@@@@@@@ooOOOoooOOoooo@@@@@@@@@",
"@@@@@@@@@o+.ooooooooooo@@@@@@@@@",
"@@@@@@@@oo. XXXXXXXXXooo@@@@@@@@",
"@@@@@@@@oXXXXXXXXXXXXX.o@@@@@@@@",
"@@@@@@@@oXXXXXXXXXXXXX.o@@@@@@@@",
"@@@@@@@@XXXXXXXXXXXXX...@@@@@@@@",
"@@@@@@@@@XXXXXXXXXX....@@@@@@@@@",
"@@@@@@@@@@@..X.......@@@@@@@@@@@",
"@@@@@@@@@@@@@@@@@@@@@@@@@@@@@@@@",
"@@@@@@@@@@@@@@@@@@@@@@@@@@@@@@@@",
"@@@@@@@@@@@@@@@@@@@@@@@@@@@@@@@@",
"@@@@@@@@@@@@@@@@@@@@@@@@@@@@@@@@",
"@@@@@@@@@@@@@@@@@@@@@@@@@@@@@@@@",
"@@@@@@@@@@@@@@@@@@@@@@@@@@@@@@@@",
"@@@@@@@@@@@@@@@@@@@@@@@@@@@@@@@@",
"@@@@@@@@@@@@@@@@@@@@@@@@@@@@@@@@",
"@@@@@@@@@@@@@@@@@@@@@@@@@@@@@@@@",
"@@@@@@@@@@@@@@@@@@@@@@@@@@@@@@@@",
"@@@@@@@@@@@@@@@@@@@@@@@@@@@@@@@@"
};
