/* XPM */
static char *_9941_31ec401ba925735d4bde47294a1259799e223ab2e7edd7178a9a5a54a4fe6034[] = {
/* columns rows colors chars-per-pixel */
"32 32 7 1 ",
"  c #181425",
". c #BE4A2F",
"X c #F77622",
"o c #FEAE34",
"O c #FEE761",
"+ c white",
"@ c None",
/* pixels */
"@@@@@@@@@@@@@@@@@@@@@@@@@@@@@@@@",
"@@@@@@@@@@@@@@@@@@@@@@@@@@@@@@@@",
"@@@@@@@@@@@@@@@@@@@@@@@@@@@@@@@@",
"@@@@@@@@@@@@@@@@@@@@@@@@@@@@@@@@",
"@@@@@@@@@@@@@@@@@@@@@@@@@@@@@@@@",
"@@@@@@@@@@@@@@@@@@@@@@@@@@@@@@@@",
"@@@@@@@@@@@@@@@@@@@@@@@@@@@@@@@@",
"@@@@@@@@@@@@@@@@@@@@@@@@@@@@@@@@",
"@@@@@@@@@@@@@@@@@@@@@@@@@@@@@@@@",
"@@@@@@@@@@@@@@@@@@@@@@@@@@@@@@@@",
"@@@@@@@@@@@@O++OOOOO@@@@@@@@@@@@",
"@@@@@@@@@@@O+OOOooooo@@@@@@@@@@@",
"@@@@@@@@@@@OOOooooooo@@@@@@@@@@@",
"@@@@@@@@@@ooOOOoOOoooo@@@@@@@@@@",
"@@@@@@@@@@o+.ooooooooo@@@@@@@@@@",
"@@@@@@@@@oo. XXXXXXXooo@@@@@@@@@",
"@@@@@@@@@oXXXXXXXXXXX.o@@@@@@@@@",
"@@@@@@@@@oXXXXXXXXXXX.o@@@@@@@@@",
"@@@@@@@@@XXXXXXXXXXX...@@@@@@@@@",
"@@@@@@@@@@XXXXXXXX....@@@@@@@@@@",
"@@@@@@@@@@@@..X.....@@@@@@@@@@@@",
"@@@@@@@@@@@@@@@@@@@@@@@@@@@@@@@@",
"@@@@@@@@@@@@@@@@@@@@@@@@@@@@@@@@",
"@@@@@@@@@@@@@@@@@@@@@@@@@@@@@@@@",
"@@@@@@@@@@@@@@@@@@@@@@@@@@@@@@@@",
"@@@@@@@@@@@@@@@@@@@@@@@@@@@@@@@@",
"@@@@@@@@@@@@@@@@@@@@@@@@@@@@@@@@",
"@@@@@@@@@@@@@@@@@@@@@@@@@@@@@@@@",
"@@@@@@@@@@@@@@@@@@@@@@@@@@@@@@@@",
"@@@@@@@@@@@@@@@@@@@@@@@@@@@@@@@@",
"@@@@@@@@@@@@@@@@@@@@@@@@@@@@@@@@",
"@@@@@@@@@@@@@@@@@@@@@@@@@@@@@@@@"
};
