/* XPM */
static char *_1748_8e0dcc23b51bae6729004b5fe88083a437f2446ef7d27af398058693e5ded10d[] = {
/* columns rows colors chars-per-pixel */
"32 32 7 1 ",
"  c #181425",
". c #BE4A2F",
"X c #F77622",
"o c #FEAE34",
"O c #FEE761",
"+ c white",
"@ c None",
/* pixels */
"@@@@@@@@@@@@@@@@@@@@@@@@@@@@@@@@",
"@@@@@@@@@@@@@@@@@@@@@@@@@@@@@@@@",
"@@@@@@@@@@@@@@@@@@@@@@@@@@@@@@@@",
"@@@@@@@@@@@@@@@@@@@@@@@@@@@@@@@@",
"@@@@@@@@@@@@@@@@@@@@@@@@@@@@@@@@",
"@@@@@@@@@@@@@@@@@@@@@@@@@@@@@@@@",
"@@@@@@@@@@@@@@@@@@@@@@@@@@@@@@@@",
"@@@@@@@@@@@@@@@@@@@@@@@@@@@@@@@@",
"@@@@@@@@@@@@@@@@@@@@@@@@@@@@@@@@",
"@@@@@@@@@@@@@@@@@@@@@@@@@@@@@@@@",
"@@@@@@@@@@@@@@@@@@@@@@@@@@@@@@@@",
"@@@@@@@@@@@@@O++OOO@@@@@@@@@@@@@",
"@@@@@@@@@@@O+OOOoooooo@@@@@@@@@@",
"@@@@@@@@@@@OOOoooooooo@@@@@@@@@@",
"@@@@@@@@@@ooOOOooOOoooo@@@@@@@@@",
"@@@@@@@@@@oooooooooo+.o@@@@@@@@@",
"@@@@@@@@@oooXXXXXXXX. oo@@@@@@@@",
"@@@@@@@@@oXXXXXXXXXXXX.o@@@@@@@@",
"@@@@@@@@@oXXXXXXXXXXXX.o@@@@@@@@",
"@@@@@@@@@XXXXXXXXXXXX...@@@@@@@@",
"@@@@@@@@@@XXXXXXXXX....@@@@@@@@@",
"@@@@@@@@@@@@..X......@@@@@@@@@@@",
"@@@@@@@@@@@@@@@@@@@@@@@@@@@@@@@@",
"@@@@@@@@@@@@@@@@@@@@@@@@@@@@@@@@",
"@@@@@@@@@@@@@@@@@@@@@@@@@@@@@@@@",
"@@@@@@@@@@@@@@@@@@@@@@@@@@@@@@@@",
"@@@@@@@@@@@@@@@@@@@@@@@@@@@@@@@@",
"@@@@@@@@@@@@@@@@@@@@@@@@@@@@@@@@",
"@@@@@@@@@@@@@@@@@@@@@@@@@@@@@@@@",
"@@@@@@@@@@@@@@@@@@@@@@@@@@@@@@@@",
"@@@@@@@@@@@@@@@@@@@@@@@@@@@@@@@@",
"@@@@@@@@@@@@@@@@@@@@@@@@@@@@@@@@"
};
