/* XPM */
static char *result[] = {
/* columns rows colors chars-per-pixel */
"32 32 8 1 ",
"  c #181425",
". c #BE4A2F",
"X c #F77622",
"o c #FEAE34",
"O c #FEE761",
"+ c #C0CBDC",
"@ c white",
"# c None",
/* pixels */
"################################",
"################################",
"################################",
"################################",
"################################",
"################################",
"################################",
"################################",
"################################",
"################################",
"############O@@OOOOO############",
"###########O@OOOooooo###########",
"###########OOOooooooo###########",
"##########ooOOOoOOoooo##########",
"##########ooo+.oo+.ooo##########",
"#########oooX. XX. Xooo#########",
"#########oXXXXXXXXXXX.o#########",
"#########oXXXXXXXXXXX.o#########",
"#########XXXXXXXXXXX...#########",
"##########XXXXXXXX....##########",
"############..X.....############",
"################################",
"################################",
"################################",
"################################",
"################################",
"################################",
"################################",
"################################",
"################################",
"################################",
"################################"
};
