/* XPM */
static char *_2034_03e2b6529ed7196d7a4f7e78c927b7d56d320c71d33ca63759b702aa4129aecf[] = {
/* columns rows colors chars-per-pixel */
"32 32 7 1 ",
"  c #181425",
". c #BE4A2F",
"X c #F77622",
"o c #FEAE34",
"O c #FEE761",
"+ c white",
"@ c None",
/* pixels */
"@@@@@@@@@@@@@@@@@@@@@@@@@@@@@@@@",
"@@@@@@@@@@@@@@@@@@@@@@@@@@@@@@@@",
"@@@@@@@@@@@@@@@@@@@@@@@@@@@@@@@@",
"@@@@@@@@@@@@@@@@@@@@@@@@@@@@@@@@",
"@@@@@@@@@@@@@@@@@@@@@@@@@@@@@@@@",
"@@@@@@@@@@@@@@@@@@@@@@@@@@@@@@@@",
"@@@@@@@@@@@@@@@@@@@@@@@@@@@@@@@@",
"@@@@@@@@@@@@@@@@@@@@@@@@@@@@@@@@",
"@@@@@@@@@@@@@@@@@@@@@@@@@@@@@@@@",
"@@@@@@@@@@@@@@@@@@@@@@@@@@@@@@@@",
"@@@@@@@@@@@@@@@@@@@@@@@@@@@@@@@@",
"@@@@@@@@@@@@O++OOOOO@@@@@@@@@@@@",
"@@@@@@@@@@@O+OOOooooo@@@@@@@@@@@",
"@@@@@@@@@@@OOOooooooo@@@@@@@@@@@",
"@@@@@@@@@@ooOOOoOOoooo@@@@@@@@@@",
"@@@@@@@@@@ooooooooo+.o@@@@@@@@@@",
"@@@@@@@@@oooXXXXXXX. oo@@@@@@@@@",
"@@@@@@@@@oXXXXXXXXXXX.o@@@@@@@@@",
"@@@@@@@@@oXXXXXXXXXXX.o@@@@@@@@@",
"@@@@@@@@@XXXXXXXXXXX...@@@@@@@@@",
"@@@@@@@@@@XXXXXXXX....@@@@@@@@@@",
"@@@@@@@@@@@@..X.....@@@@@@@@@@@@",
"@@@@@@@@@@@@@@@@@@@@@@@@@@@@@@@@",
"@@@@@@@@@@@@@@@@@@@@@@@@@@@@@@@@",
"@@@@@@@@@@@@@@@@@@@@@@@@@@@@@@@@",
"@@@@@@@@@@@@@@@@@@@@@@@@@@@@@@@@",
"@@@@@@@@@@@@@@@@@@@@@@@@@@@@@@@@",
"@@@@@@@@@@@@@@@@@@@@@@@@@@@@@@@@",
"@@@@@@@@@@@@@@@@@@@@@@@@@@@@@@@@",
"@@@@@@@@@@@@@@@@@@@@@@@@@@@@@@@@",
"@@@@@@@@@@@@@@@@@@@@@@@@@@@@@@@@",
"@@@@@@@@@@@@@@@@@@@@@@@@@@@@@@@@"
};
