/* XPM */
static char *_0650_744d991e66bf18b5719f6f4ae0edfa9ded576dc82eb7601a75a764a5365b87f6[] = {
/* columns rows colors chars-per-pixel */
"32 32 7 1 ",
"  c #181425",
". c #BE4A2F",
"X c #F77622",
"o c #FEAE34",
"O c #FEE761",
"+ c white",
"@ c None",
/* pixels */
"@@@@@@@@@@@@@@@@@@@@@@@@@@@@@@@@",
"@@@@@@@@@@@@@@@@@@@@@@@@@@@@@@@@",
"@@@@@@@@@@@@@@@@@@@@@@@@@@@@@@@@",
"@@@@@@@@@@@@@@@@@@@@@@@@@@@@@@@@",
"@@@@@@@@@@@@@@@@@@@@@@@@@@@@@@@@",
"@@@@@@@@@@@@@@@@@@@@@@@@@@@@@@@@",
"@@@@@@@@@@@@@@@@@@@@@@@@@@@@@@@@",
"@@@@@@@@@@@@@@@@@@@@@@@@@@@@@@@@",
"@@@@@@@@@@@@@@@@@@@@@@@@@@@@@@@@",
"@@@@@@@@@@@@@@@@@@@@@@@@@@@@@@@@",
"@@@@@@@@@@@@@@@@@@@@@@@@@@@@@@@@",
"@@@@@@@@@@@@@OOOOOO@@@@@@@@@@@@@",
"@@@@@@@@@@@O++oooooooo@@@@@@@@@@",
"@@@@@@@@@@OOOooooooooo@@@@@@@@@@",
"@@@@@@@@@ooOOOoooOOoooo@@@@@@@@@",
"@@@@@@@@@ooooooooooo+.o@@@@@@@@@",
"@@@@@@@@oooXXXXXXXXX. oo@@@@@@@@",
"@@@@@@@@oXXXXXXXXXXXXX.o@@@@@@@@",
"@@@@@@@@oXXXXXXXXXXXXX.o@@@@@@@@",
"@@@@@@@@XXXXXXXXXXXXX...@@@@@@@@",
"@@@@@@@@@XXXXXXXXXX....@@@@@@@@@",
"@@@@@@@@@@@..X.......@@@@@@@@@@@",
"@@@@@@@@@@@@@@@@@@@@@@@@@@@@@@@@",
"@@@@@@@@@@@@@@@@@@@@@@@@@@@@@@@@",
"@@@@@@@@@@@@@@@@@@@@@@@@@@@@@@@@",
"@@@@@@@@@@@@@@@@@@@@@@@@@@@@@@@@",
"@@@@@@@@@@@@@@@@@@@@@@@@@@@@@@@@",
"@@@@@@@@@@@@@@@@@@@@@@@@@@@@@@@@",
"@@@@@@@@@@@@@@@@@@@@@@@@@@@@@@@@",
"@@@@@@@@@@@@@@@@@@@@@@@@@@@@@@@@",
"@@@@@@@@@@@@@@@@@@@@@@@@@@@@@@@@",
"@@@@@@@@@@@@@@@@@@@@@@@@@@@@@@@@"
};
