/* XPM */
static char *result[] = {
/* columns rows colors chars-per-pixel */
"32 32 148 2 ",
"   c #020202",
".  c #0C0700",
"X  c #0E0E0E",
"o  c #1E1A06",
"O  c #1F1B0A",
"+  c #1B1816",
"@  c #1D1B19",
"#  c #251D00",
"$  c #2A2403",
"%  c #262211",
"&  c #574D16",
"*  c #5A4F17",
"=  c #5A5017",
"-  c #6F621B",
";  c #6D6115",
":  c #716311",
">  c #70631E",
",  c #77691B",
"<  c #7C6F1F",
"1  c #7B6C13",
"2  c #6F6426",
"3  c #716526",
"4  c #4F4F4E",
"5  c #5E5D5D",
"6  c #726C4E",
"7  c #797046",
"8  c #8E7F1F",
"9  c #8E7F2E",
"0  c #8B7D30",
"q  c #94852D",
"w  c #8F823E",
"e  c #958636",
"r  c #9E8D36",
"t  c #9E8F3A",
"y  c #A2912D",
"u  c #A39235",
"i  c #A49439",
"p  c #B8A635",
"a  c #B6A534",
"s  c #C2AC1C",
"d  c #D0B81B",
"f  c #D4BC24",
"g  c #C8B43A",
"h  c #D2BD3C",
"j  c #F0D301",
"k  c #F7DA00",
"l  c #FBDD02",
"z  c #F4D70B",
"x  c #F5D90D",
"c  c #FADC0B",
"v  c #F7DA13",
"b  c #FADD13",
"n  c #F2D71C",
"m  c #F7DB1C",
"M  c #FADE1A",
"N  c #FDE00B",
"B  c #FDE012",
"V  c #FCE01D",
"C  c #DFC522",
"Z  c #DFC93F",
"A  c #DAC439",
"S  c #E8CF28",
"D  c #EED429",
"F  c #F0D626",
"G  c #F7DB24",
"H  c #FADE24",
"J  c #F6DB2A",
"K  c #E9D038",
"L  c #F6DC31",
"P  c #F6DD3A",
"I  c #FFE326",
"U  c #FEE32B",
"Y  c #FCE235",
"T  c #FDE33A",
"R  c #8A814E",
"E  c #A79C5F",
"W  c #B3A34B",
"Q  c #BCAC52",
"!  c #8A8462",
"~  c #87836E",
"^  c #9A936E",
"/  c #928E72",
"(  c #948F78",
")  c #9E9775",
"_  c #9C977C",
"`  c #9E997E",
"'  c #A09765",
"]  c #A39A67",
"[  c #B8AE77",
"{  c #B6AC78",
"}  c #BFB57C",
"|  c #C6B658",
" . c #C7BB7E",
".. c #D8C556",
"X. c #DBC858",
"o. c #F4DB43",
"O. c #E2CE57",
"+. c #FBE244",
"@. c #FDE54B",
"#. c #FEE654",
"$. c #FEE857",
"%. c #FDE75D",
"&. c #FDE85C",
"*. c #EADA76",
"=. c #E5D579",
"-. c #FCE766",
";. c #FEE964",
":. c #FEEA6C",
">. c #FFEC74",
",. c #FFED7F",
"<. c #818181",
"1. c #8D8D8C",
"2. c #9B9680",
"3. c #9F9A80",
"4. c #90908F",
"5. c #9C9C9B",
"6. c #939292",
"7. c #A29C86",
"8. c #A5A087",
"9. c #A5A28A",
"0. c #A0A09E",
"q. c #A4A4A3",
"w. c #A8A7A6",
"e. c #ABAAA7",
"r. c #AFAFAC",
"t. c #B5B5B3",
"y. c #B8B7B2",
"u. c #B9B8B5",
"i. c #BBBABA",
"p. c #C4BA84",
"a. c #CBC18A",
"s. c #D6CA89",
"d. c #DBD18F",
"f. c #FFEE85",
"g. c #FEEE8A",
"h. c #FDED95",
"j. c #FCED98",
"k. c #C3C2C0",
"l. c #C9CAC6",
"z. c #D0CFC7",
"x. c #D0CFCF",
"c. c #D1D0CD",
"v. c #D3D3D3",
"b. c #D8D7D8",
"n. c #DEDEDD",
"m. c #E0DFDB",
"M. c #E3E3E2",
"N. c None",
/* pixels */
"N.N.N.N.N.N.N.N.N.N.N.5                 <.N.N.N.N.N.N.N.N.N.N.N.",
"N.N.N.N.N.N.N.v.i.i.y.! R R R R R R R R / u.i.i.b.N.N.N.N.N.N.N.",
"N.N.N.N.N.N.N.4.    o s.h.h.h.h.h.h.h.h. ..     0.N.N.N.N.N.N.N.",
"N.N.N.N.N.v.e.` E ^ E =.>.;.-.;.;.;.;.;.O.u u t ^ e.b.N.N.N.N.N.",
"N.N.N.N.N.q.  p.h.h.g.-.@.Y U U U U U U Y T T +.i   y.N.N.N.N.N.",
"N.N.N.x.5.8.[ =.>.;.$.T G n v v v b v v M I U U A W ) 5.n.N.N.N.",
"N.N.N.r.  { h.:.@.T I z j j j j j j j j z I I U U +.r   l.N.N.N.",
"N.v.1.` a.=.:.@.Y G x v M V V V M M M M v x M I U U Z | _ 1.n.N.",
"N.i.  ^ h.>.@.T I z j V I Y T T Y Y Y U V j x I I U U @.w   v.N.",
"N.i.  E h.-.T m z b V I Y :.>.>.>.>.;.U I V v z b I I +.w   b.N.",
"N.y.% E f.$.U x j V U Y +.>.,.,.f.,.:.U I I B j G T Y T e # l.N.",
"4 ! d.*.-.P z b V I Y ;.>.+.Y T T Y Y c B I I I #.>.@.Y K ..7 4 ",
"  R j.>.@.G j m I I T >.f.Y l l N N k k b I I U -.f.&.U I +.3   ",
"  R h.-.T m j M U I T >.,.Y N l N k N k c I I Y ;.g.&.U N L 3   ",
"  R h.;.U v j M I I T >.,.Y k l N k k k b I I U ;.f.&.I N J >   ",
"  R h.-.Y v j M I U T ,.,.Y l l N N N k B I I Y ;.f.&.I N J >   ",
"  R h.;.U v j M I I T >.,.Y l l k k N k c I I U ;.f.&.I N J -   ",
"  R h.;.Y v j M U U T >.,.Y l l N N k k b I I Y ;.f.;.I N J -   ",
"  R h.-.U v j M I I T >.,.P l l l N N k B I I Y ;.f.;.U N J -   ",
"  R h.-.Y v j M I U T >.,.Y l l l l l k N I I I ;.f.&.I N J >   ",
"5._ } ..Y M v v M I Y &.;.H l l k l k B V I +.&.;.:.+.I C a _ 5.",
"N.i.  r Y I I x j V I I U l k k k k c I U U &.f.;.Y N m 0   v.N.",
"N.i.  r T I I V v x M I I V V b B V V U +.&.;.;.@.I b G 9   v.N.",
"N.i.  t +.Y I I I z j I Y U I U U U U U $.f.;.Y I I b J 9   b.N.",
"N.n.u._ q h U U I I G #.:.:.>.:.:.:.:.:.;.&.@.U V V s q 8.y.N.N.",
"N.N.N.r.  W +.L I I Y >.f.f.f.f.g.f.g.f.;.Y U U V G q   l.N.N.N.",
"N.N.N.M.k._ < h U I U @.#.#.#.#.#.#.#.#.T B l B s 1 7.k.N.N.N.N.",
"N.N.N.N.N.w.+ Q o.P P J I I I I U I I I I m n F y @ y.N.N.N.N.N.",
"N.N.N.N.N.M.c.( 3 2 3 S N l N l l N l l d : ; - 3.c.M.N.N.N.N.N.",
"N.N.N.N.N.N.N.6.X X $ g D D D D D D D S a o X X q.N.N.N.N.N.N.N.",
"N.N.N.N.N.N.N.N.M.M.m.6 = = * * * * * * ~ m.M.M.N.N.N.N.N.N.N.N.",
"N.N.N.N.N.N.N.N.N.N.N.5   .   X     X   <.N.N.N.N.N.N.N.N.N.N.N."
};
