/* XPM */
static char *_e7fbc03d3ce4bf4a118da00f863e5bc5D2jTDiirUch3zoP[] = {
/* columns rows colors chars-per-pixel */
"32 32 16 1 ",
"  c None",
". c #222222",
"X c #A45104",
"o c #FC284E",
"O c #0CF47B",
"+ c #E28512",
"@ c #FADE00",
"# c #FB9C69",
"$ c #0065B9",
"% c #F0598C",
"& c #26AAE1",
"* c #A2B0B9",
"= c #FACC9A",
"- c #FBA7DA",
"; c #CCDAE0",
": c #F9F9F9",
/* pixels */
"                                ",
"                                ",
"                                ",
"                                ",
"       +@.@++@@+X+              ",
"      .@@X@+@@@@@@+.            ",
"      .@++o@+oo+@@@@+.          ",
"      .++@@@++@+oo++X.          ",
"      +X@+@++XX@+@o++@.         ",
"      .+@X@+X###X@@o@+.         ",
"      .@@XX##..#X+Xo+X          ",
"      .+@..##.;.#X=X+@.         ",
"       .+..#=.:=#X#X++          ",
"         .#==X==#XO@o.          ",
"         .#====#XO++oX...       ",
"          .#=#XXoo+.@+X@@.      ",
"          .oXoo%-ooo.+@+@@+     ",
"         .&oOo&*:;o%o..++X      ",
"         .&$$&**:;.+X. ..       ",
"          .;;*X;::X++X.         ",
"           .=X#=#;XX+++..       ",
"           .o.=#Xo..X+++X.      ",
"          .$&&$$$$.  ....       ",
"          .;:;..;**.            ",
"         ..&@.  .@;.            ",
"        .%o&.    .&o.           ",
"         .o.    .%.o.           ",
"        ...............         ",
"                                ",
"                                ",
"                                ",
"                                "
};
