/* XPM */
static char *e649340aeeb84082d9727ba8d2c6c0f6HvW81bRa8vIPelgy[] = {
/* columns rows colors chars-per-pixel */
"32 32 16 1 ",
"  c None",
". c #222222",
"X c #A45104",
"o c #FC284E",
"O c #0CF47B",
"+ c #E28512",
"@ c #FADE00",
"# c #FB9C69",
"$ c #0065B9",
"% c #F0598C",
"& c #26AAE1",
"* c #A2B0B9",
"= c #FACC9A",
"- c #FBA7DA",
"; c #CCDAE0",
": c #F9F9F9",
/* pixels */
"                                ",
"                                ",
"                                ",
"                                ",
"             +.+@+X+.@+X        ",
"           .+@@@@@@+@.@+.       ",
"          .++@@@oo++o+@@.       ",
"         .@X++o+@++@@@++.       ",
"         .X@o@+@XX+@@+@X        ",
"        .@@o@@X###X@+X@+.       ",
"         X@oX+X#..#X+X@+.       ",
"        .++X=X#.;.##..+.        ",
"        .++X#X#=:.=#..          ",
"         .++OX#==X==#.          ",
"          .@OXX#====#.          ",
"          .++.oXX#=#.           ",
"          .@.o-oooXo.           ",
"           .;:;*&oOo&.          ",
"          .*::**&&$$&.          ",
"          .;*:***;;;.           ",
"         .o.=#X.#==.=.          ",
"        ..X.#=.oo%%o#.          ",
"        .oX+...$&&$$.           ",
"        .o..   .;;*.            ",
"         .     .:@.             ",
"               .@&.             ",
"               .o.%.            ",
"             .........          ",
"                                ",
"                                ",
"                                ",
"                                "
};
