/* XPM */
static char *f7b0e93fe0294b9fa6d4efa80d09ab3co5GxxmnkLvU8rxDl[] = {
/* columns rows colors chars-per-pixel */
"32 32 16 1 ",
"  c None",
". c #222222",
"X c #A45104",
"o c #FC284E",
"O c #0CF47B",
"+ c #E28512",
"@ c #FADE00",
"# c #FB9C69",
"$ c #0065B9",
"% c #F0598C",
"& c #26AAE1",
"* c #A2B0B9",
"= c #FACC9A",
"- c #FBA7DA",
"; c #CCDAE0",
": c #F9F9F9",
/* pixels */
"                                ",
"                                ",
"                                ",
"                                ",
"                                ",
"                                ",
"                                ",
"                                ",
"                .... .++.       ",
"               .:##=X+:@++.     ",
"               .:XXXXXX+o@@.    ",
"        ...   .O.#==#X@o@@+X    ",
"       .;@;. .$oo.XXX@+o@@@+    ",
"       .@:;&.$&$ooO#+@+o@@+.    ",
"      .&:.;$#;&$oO+X++o@@+@+    ",
"     .%o*.$%=;$$oo++@+o@@+@.    ",
"     ..o..&%#;:;o%X@+@@@X++.    ",
"      ..*:&%%*.*o-+++@+@X@+.    ",
"    ..&@::$oo.*:ooXX+@X+X++     ",
"    .%o&@;$o.*::o-o.@+X++..     ",
"     .o.....=##:Xo%.@..+..      ",
"     ......=#=XXXo..+.....      ",
"          .==.XXXo..++.         ",
"          ....X+X...++@.        ",
"             .++X...+@@.        ",
"             .++. ..+@X         ",
"              .+.  ..+.         ",
"               .   ...          ",
"                                ",
"                                ",
"                                ",
"                                "
};
