/* XPM */
static char *_1796_f0c8bb0bf66568fb22417bc12a12a69fe041c23bba294fa3ef6f456cdd7beece[] = {
/* columns rows colors chars-per-pixel */
"32 32 12 1 ",
"  c #222222",
". c #A45104",
"X c #FC284E",
"o c #E28512",
"O c #FADE00",
"+ c #0065B9",
"@ c #F0598C",
"# c #26AAE1",
"$ c #A2B0B9",
"% c #FBA7DA",
"& c #CCDAE0",
"* c None",
/* pixels */
"********************************",
"********************************",
"********************************",
"********************************",
"**************oOo .oO **********",
"************oOOOOoOOOoO ********",
"*********** OOOoOoOoOoOOo*******",
"***********oOoOOOOOoOOoO *******",
"***********oOXOoOoOOOOXOo*******",
"***********oOXooo.oOooXoo*******",
"*********** oOXo.OO.oXOo *******",
"*********** oooX.oO.Xooo *******",
"************.ooo.O..ooo.********",
"************ .oO..O.O@X ********",
"*********** @%XoX o @@X@ *******",
"********** @%X%XX ...@X@ *******",
"********** %X%X%X@.oo.@%X ******",
"********* @@@%@%@@.OO.@%X ******",
"******** @%@%@%@@@.oOO.@X ******",
"******** %@@%@%@%@%...%X%X******",
"******* @%@%@%@@%@@%@@%X%X *****",
"****** @%@@%@%@@%XX    X@X *****",
"******* X@%@X  +##+++ *  X *****",
"*********   ** $O$ $ ***  ******",
"************** #&O X ***********",
"*************** #@      ********",
"************    @X   ***********",
"***************  X  ************",
"********************************",
"********************************",
"********************************",
"********************************"
};
