/* XPM */
static char *dc1c00aca5fa431d8a6a5ccea9479e3fIhU12iGu8eK9mRXc[] = {
/* columns rows colors chars-per-pixel */
"32 32 16 1 ",
"  c None",
". c #222222",
"X c #A45104",
"o c #FC284E",
"O c #0CF47B",
"+ c #E28512",
"@ c #FADE00",
"# c #FB9C69",
"$ c #0065B9",
"% c #F0598C",
"& c #26AAE1",
"* c #A2B0B9",
"= c #FACC9A",
"- c #FBA7DA",
"; c #CCDAE0",
": c #F9F9F9",
/* pixels */
"                                ",
"                                ",
"                                ",
"                                ",
"               +X+@@++@.@+      ",
"             .+@@@@@@+@X@@.     ",
"           .+@@@@+oo+@o++@.     ",
"           .X++oo+@++@@@++.     ",
"          .@++o@+@XX++@+@X+     ",
"          .+@o@@X###X+@X@+.     ",
"           X+oX+X#..##XX@@.     ",
"          .@+X=X#.;.##..@+.     ",
"           ++X#X#=:.=#..+.      ",
"           .o@OX#==X==#.        ",
"        ...Xo++OX#====#.        ",
"       .@@X+@.+ooXX#=#.         ",
"      +@@+@+.ooo-%ooXo.         ",
"       X++..o%o;:*&oOo&.        ",
"        .. .X+.;:**&$$&.        ",
"          .X++X::;X*;;.         ",
"        ..+++XX;#=#X=.          ",
"       .X+++X..oX#=.o.          ",
"        ....  .$$$$&&$.         ",
"             .**;..;:;.         ",
"             .;@.  .@&..        ",
"            .o&.    .&o%.       ",
"            .o.%.    .o.        ",
"          ...............       ",
"                                ",
"                                ",
"                                ",
"                                "
};
