/* XPM */
static char *_5d3f214c0694cfd8422f72c0ff52ec7IPyvFV9K5PV766k2[] = {
/* columns rows colors chars-per-pixel */
"32 32 16 1 ",
"  c None",
". c #222222",
"X c #A45104",
"o c #FC284E",
"O c #0CF47B",
"+ c #E28512",
"@ c #FADE00",
"# c #FB9C69",
"$ c #0065B9",
"% c #F0598C",
"& c #26AAE1",
"* c #A2B0B9",
"= c #FACC9A",
"- c #FBA7DA",
"; c #CCDAE0",
": c #F9F9F9",
/* pixels */
"                                ",
"                                ",
"                                ",
"                                ",
"             .+@+X+@+.          ",
"           .X@@+@+@+X@+.        ",
"           +@++@o+@oo+@@        ",
"           .@+o@++@@+oo@.       ",
"          .++o+@@+@X#+o+X       ",
"          X+X@+X@@X##X@o+.      ",
"          .+X@X.X@XX.X@X+X      ",
"           X=XX;.X#.;XX=XX      ",
"           X#X=:.##.:=X#X       ",
"            OX#=X==X=#XO        ",
"            O.X======X. O       ",
"            .ooX#==#Xoo.        ",
"           .-o-ooXXoo-;*.       ",
"          .X;:*&$OO$&*::.       ",
"         .o*::.&&&$&&.X##.      ",
"         .+X**.*;**;*.+X=.      ",
"        .++X=#X.#=#=oXX+..      ",
"       .++XX#=Xoo%%%-oX+%.      ",
"        ..XX...%o$$&&$..o.      ",
"          ...  .*.;:;.  .       ",
"               .o.@&*.          ",
"             .....&@.           ",
"               ...%o...         ",
"                .....           ",
"                                ",
"                                ",
"                                ",
"                                "
};
