/* XPM */
static char *f492b7a32b7444b2ad3546df1824c3b60phyz867Ible03rq[] = {
/* columns rows colors chars-per-pixel */
"32 32 15 1 ",
"  c None",
". c #222222",
"X c #A45104",
"o c #FC284E",
"O c #0CF47B",
"+ c #E28512",
"@ c #FADE00",
"# c #FB9C69",
"$ c #0065B9",
"% c #F0598C",
"& c #26AAE1",
"* c #A2B0B9",
"= c #FACC9A",
"- c #CCDAE0",
"; c #F9F9F9",
/* pixels */
"                                ",
"                                ",
"                                ",
"                                ",
"             .++..++            ",
"            .+@X+@@++...        ",
"           .+@+@@++@@@+++       ",
"           .+@ooooo@@++X..      ",
"          .+X@@XX@@o+@@+++      ",
"          .@@@X#X@+@o@@@@+.     ",
"          .@@XX.#XX@o+++X.      ",
"           X+=.-#X=X++@@@+.     ",
"            .=.;#X#X++++..      ",
"            .=.=#XO++X+..       ",
"            .#==#XO.++@.        ",
"             .##Xooo.@@.        ",
"            .oXooo---.+@.       ",
"       ..   .&&$--;;--.@+..     ",
"       .o.   .&;-*;-#=.X@@+.    ",
"       .o.....;;--..#==.+@@.    ",
"      .%o@@-$ooo###.#=#.++@.    ",
"      ...&-@-*$$%%oo.#. ...     ",
"         ....-*$&&&$..          ",
"             ...----.           ",
"                .-@;.           ",
"                 .&&@.          ",
"                  .%o.          ",
"                ......          ",
"                                ",
"                                ",
"                                ",
"                                "
};
