/* XPM */
static char *_2357_2f918e132554f6dc767a3f6e8d856902c30089a214b386ceec29739ae269c33c[] = {
/* columns rows colors chars-per-pixel */
"32 32 12 1 ",
"  c #222222",
". c #A45104",
"X c #FC284E",
"o c #E28512",
"O c #FADE00",
"+ c #0065B9",
"@ c #F0598C",
"# c #26AAE1",
"$ c #A2B0B9",
"% c #FBA7DA",
"& c #CCDAE0",
"* c None",
/* pixels */
"********************************",
"********************************",
"********************************",
"********************************",
"***********oOo .oO *************",
"*********oOOOOoOOOoO ***********",
"******** OOOoOoOoOoOOo**********",
"********oOoOOOOOoOOoO **********",
"********oOXOoOoOOOOXOo**********",
"********oOXooo.oOooXoo**********",
"******** oOXo.OO.oXOo **********",
"******** oooX.oO.Xooo **********",
"*********.ooo..O.ooo.***********",
"********* X@O.O..Oo. ***********",
"******** @X@@ o XoX%@ **********",
"******** @X@... XX%X%@ *********",
"******* X%@.oo.@X%X%X% *********",
"******* X%@.OO.@@%@%@@@ ********",
"******* X@.OOo.@@@%@%@%@ *******",
"*******X%X%...%@%@%@%@@% *******",
"****** X%X%@@%@@%@@%@%@%@ ******",
"****** X@X    XX%@@%@%@@%@ *****",
"****** X  * +++##+  X@%@X ******",
"*******  *** $ $O$ **   ********",
"************ X O&# *************",
"*********      @# **************",
"************   X@    ***********",
"*************  X  **************",
"********************************",
"********************************",
"********************************",
"********************************"
};
