/* XPM */
static char *_095e77d21d74850f1097837b312d6afHKK64dXsuKM5Nq63[] = {
/* columns rows colors chars-per-pixel */
"32 32 16 1 ",
"  c None",
". c #222222",
"X c #A45104",
"o c #FC284E",
"O c #0CF47B",
"+ c #E28512",
"@ c #FADE00",
"# c #FB9C69",
"$ c #0065B9",
"% c #F0598C",
"& c #26AAE1",
"* c #A2B0B9",
"= c #FACC9A",
"- c #FBA7DA",
"; c #CCDAE0",
": c #F9F9F9",
/* pixels */
"                                ",
"                                ",
"                                ",
"                                ",
"         X+@.+X+@+.+            ",
"        .+@.@+@@@@@@+.          ",
"        .@@+o++oo@@@++.         ",
"        .++@@@++@+o++X@.        ",
"         X@+@@+XX@+@o@X.        ",
"        .+@X+@X###X@@o@@.       ",
"        .+@X+X#..#X+Xo@X        ",
"         .+..##.;.#X=X++.       ",
"           ..#=.:=#X#X++.       ",
"           .#==X==#XO++.        ",
"           .#====#XXO@.         ",
"            .#=#XXo.++.         ",
"            .oXooo-o.@.         ",
"           .&oOo&*;:;.          ",
"           .&$$&&**::*.         ",
"            .;;;***:*;.         ",
"           .=.==#.X#=.o.        ",
"           .#o%%oo.=#.X..       ",
"            .$$&&$...+Xo.       ",
"             .*;;.   ..o.       ",
"              .@:.     .        ",
"              .&@.              ",
"             .%.o.              ",
"           .........            ",
"                                ",
"                                ",
"                                ",
"                                "
};
