/* XPM */
static char *result[] = {
/* columns rows colors chars-per-pixel */
"32 32 173 2 ",
"   c #050719",
".  c #0C071E",
"X  c #06081A",
"o  c #0B0A1D",
"O  c #130C1C",
"+  c #1A0D1B",
"@  c #0F1115",
"#  c #16111E",
"$  c #1C121C",
"%  c #22151D",
"&  c #20191B",
"*  c #2E181D",
"=  c #341C1F",
"-  c #32201F",
";  c #061624",
":  c #0A1624",
">  c #051824",
",  c #091728",
"<  c #051E2B",
"1  c #1A1120",
"2  c #231624",
"3  c #2E1724",
"4  c #2B1922",
"5  c #231D2B",
"6  c #311B23",
"7  c #3B1D24",
"8  c #3B1F28",
"9  c #1E2028",
"0  c #02363C",
"q  c #0F363F",
"w  c #0E3B3E",
"e  c #12363F",
"r  c #19353A",
"t  c #163C3D",
"y  c #1B3B3E",
"u  c #3C2423",
"i  c #3C2328",
"p  c #263B36",
"a  c #2B3836",
"s  c #23363C",
"d  c #2A373C",
"f  c #223C3D",
"g  c #2B3C3C",
"h  c #3A3135",
"j  c #313933",
"k  c #431E24",
"l  c #4A1F26",
"z  c #401E29",
"x  c #412123",
"c  c #4B2426",
"v  c #402028",
"b  c #4D252B",
"n  c #4A2A2B",
"m  c #502526",
"M  c #572B27",
"N  c #52252A",
"B  c #542B2D",
"V  c #5C2D2A",
"C  c #44312E",
"Z  c #543427",
"A  c #4A2E30",
"S  c #572C32",
"D  c #5E2F31",
"F  c #4E3E38",
"G  c #533637",
"H  c #5E3334",
"J  c #553D36",
"K  c #54373A",
"L  c #5C3538",
"P  c #51383A",
"I  c #5C3E3B",
"U  c #602E2E",
"Y  c #60332F",
"T  c #623636",
"R  c #653A35",
"E  c #603538",
"W  c #663B3B",
"Q  c #6A3D3A",
"!  c #16403F",
"~  c #1D403E",
"^  c #61433E",
"/  c #6E413A",
"(  c #774A3D",
")  c #013542",
"_  c #0E3742",
"`  c #033A44",
"'  c #0D3C44",
"]  c #033C49",
"[  c #0A3D49",
"{  c #183745",
"}  c #133B43",
"|  c #1C3C43",
" . c #153D48",
".. c #1C3D49",
"X. c #213C44",
"o. c #293E41",
"O. c #4B3F44",
"+. c #0C4144",
"@. c #0F4048",
"#. c #124245",
"$. c #1A4344",
"%. c #15434A",
"&. c #1D444B",
"*. c #17484C",
"=. c #1D4848",
"-. c #234246",
";. c #2D4142",
":. c #2C4942",
">. c #24434A",
",. c #2C454B",
"<. c #2C4B4C",
"1. c #3C4B47",
"2. c #31444D",
"3. c #344B4E",
"4. c #3A4D4E",
"5. c #3C504C",
"6. c #264552",
"7. c #2D4652",
"8. c #2A4D51",
"9. c #344C51",
"0. c #3C4D53",
"q. c #3E4D58",
"w. c #345253",
"e. c #3C5355",
"r. c #365158",
"t. c #3D5359",
"y. c #454043",
"u. c #5D4141",
"i. c #43514E",
"p. c #49524E",
"a. c #434D54",
"s. c #494E54",
"d. c #434F58",
"f. c #435354",
"g. c #4D5555",
"h. c #495855",
"j. c #455459",
"k. c #4B535A",
"l. c #425959",
"z. c #4E5B5D",
"x. c #535D5D",
"c. c #644946",
"v. c #684A45",
"b. c #604A4C",
"n. c #694D4B",
"m. c #734C46",
"M. c #7B4D44",
"N. c #764E4A",
"B. c #7C4F49",
"V. c #68534B",
"C. c #7E5046",
"Z. c #7E514C",
"A. c #4D5F64",
"S. c #545C62",
"D. c #595C63",
"F. c #516260",
"G. c #5B6366",
"H. c #5B6569",
"J. c #58696D",
"K. c #597177",
"L. c #5F767B",
"P. c #606067",
"I. c #636D6B",
"U. c #636C71",
"Y. c #6B6E78",
"T. c #637273",
"R. c #637378",
"E. c #647B7B",
"W. c #6A7B78",
"Q. c #834D4E",
"!. c #815346",
"~. c #815248",
"^. c None",
/* pixels */
"^.p ~ ^.g s f y y X.y t t y y y y t y t y y y f y y y p ^.~ p ^.",
"a a.k.;.4.Y.A.K.=.r.I.D.U.R.l.e.3.j.j.d.<.=.} e.e.E.L.0 f f.5.j ",
"f f.k.>.e.G.x.S.$.e.G.D.D.x.f.e.a.a.d.s.w.8.#.a.h.I.D.` #.e.4.g ",
"^.~ [ @.3.f.p.9.! ' $.$.%.' [ '  . .' [ } _ ' 4.i.p.4.] ] +.$.^.",
"^.f ,.j.-.! ! ;.O.u.c.v.^ W I c.c.I I G A K h s -.$.t [ 0.w...^.",
"^.| f.g.$.y.c.n.N.Z.!.!.C.M.M.M.!.( ( W W M.v.V.V.u.y.#.d.k.$.^.",
"^...z.g.#.n.Q.M.~.Z.Z.Z.Z.C.~.~.~.M.Q M.M.C.C.Z.B.M.c.%.a.k.y ^.",
"^...T.G.%.C B H V H Q V H / / V M V M M V S Q U D Z n  .a.9.| ^.",
"^.| W.H.*.J R S H R W L B R Q W T B T R T H S R W R G { f.t.| ^.",
"^...F.x.%.F R L B W W E N I R R T b E W E B L W W R P ..d.t.f ^.",
"^.| I.D.&.9 i n k c N N c u c N c 6 c m c k b N N i 5  .s.l.y ^.",
"^...x.k.%.> 1 i u 8 z l x - l l x = k 7 7 k l l 7 1 : | a.f.X.^.",
"^...f.j.+.: o $ 4 3 % * = $ 6 * $ * - $ 4 6 3 + + o ,  .9.<.$.^.",
"^.| 3.9.+.: o o o % & # 2 + 2 % O $ @ 2 2 + O . O o : ' w.3.| ^.",
"^.X.3.e.#.> o o o o O o o o O o X     @ o o . . . o , e f.l.| ^.",
"^.$.f.t.' @ o o o X X o o o o           . o o . . . ; | s.k.X.^.",
"^.| j.d.[ ; O . X X o o o o X           X . . o : . , } s.l.X.^.",
"^.t k.k.+.; o o X X @ o o . X           . . o o . . ,  .5.l.X.^.",
"^.! k.d.#.> o o o o X X o o           X o : . . . . ,  .i.l.X.^.",
"^.| k.k.+.; o o X o o o o X X         o o o o : . . ,  .0.l...^.",
"^.y w.k.-.> o O X o @ o . X X     X X o o o o o o . ; } a.e.$.^.",
"^.y 9.k.*.X o o o o X X . X X X X X . o . o o o . . ; } 4.4.X.^.",
"^.s f.q.+.> O o X o o o o X X X X . . o . o o . o . ; e k.j.y ^.",
"^.X.<.%.` @ o o X o X @ o o X o . X o X o o : . . . ; } a.h.| ^.",
"^.y <.&.0 ; . o o o o @ X X . o o o o o . . o o . . ; w a.f.| ^.",
"^.f j.q._ ; o o o o X o o o o . o o o o . : o . O . : t 3.<.t ^.",
"^.y f.9.' ; o o o o o X . o . o o o o o o o . . . . : } 9.<.t ^.",
"^.y &.[ 0 < : : ; ; ; , ; ; ; ; : ; : , , , : ; , : < } ,.=.| ^.",
"^.y ..) <...7.>.| { _ _  . ._ } | ..X.X.| } | } { } ' ` ` | $.^.",
"a :.j.| J.D.Y.D.g.3.,.,.,.r.,.3.e.h.g.k.h.1.i.:.,.<.5.#.} 5.5.d ",
"^.o.6.[ ) ,.w.<.,.' ) ) 0 ) 0 _ >.,.2.2.,.,.,.) )  .,.] ] =.;.^.",
"^.r _ q _ r r r e q q q w w t t t y t y y t y t } | | t | t f ^."
};
