/* XPM */
static char *result[] = {
/* columns rows colors chars-per-pixel */
"32 32 51 1 ",
"  c #67876A",
". c #688B69",
"X c #6C9369",
"o c #75976D",
"O c #739B6B",
"+ c #7E9E6C",
"@ c #799F72",
"# c #79A667",
"$ c #72A268",
"% c #7BA46A",
"& c #77AB69",
"* c #7CAD6B",
"= c #7AB169",
"- c #7DA671",
"; c #81A46E",
": c #82AD6D",
"> c #82B46B",
", c #8CB46E",
"< c #95B36E",
"1 c #93BD6E",
"2 c #82A273",
"3 c #88A675",
"4 c #83A972",
"5 c #8BAD74",
"6 c #8CAC79",
"7 c #90AE74",
"8 c #85B072",
"9 c #8DB374",
"0 c #8EB972",
"q c #89B379",
"w c #8FB878",
"e c #95B574",
"r c #99B677",
"t c #96BB74",
"y c #9ABB75",
"u c #96B479",
"i c #99B77C",
"p c #96BA7B",
"a c #9CBA7A",
"s c #A2BC7C",
"d c #96C06E",
"f c #9EC07E",
"g c #A4C17D",
"h c #9DBC80",
"j c #A2BD81",
"k c #A7BE8F",
"l c #A3C282",
"z c #A9C284",
"x c #AAC38A",
"c c #B0C387",
"v c #B3C798",
/* pixels */
"s+90rrsrust9xs;$1hX45O-8,r39e0aa",
"eX45+;9e+9t0rst0sg=55=57eg:48,yt",
"4=55Xo48Xus:xs:$1h99rrr2oq=q5rg1",
"51p-==55&esersrejgtty1u4%61r2o9>",
"tju411txj4O1+909aa35ydue94uu4%6,",
"uauelzsrst1jX48,ry44tyry9&2u994+",
"uuryjrs+900j=57ugd0tzslu4%9eyr,3",
"te5%529X-8,r1t4oq>9ttyhu994+exs4",
"r9$X4O4=q5eslu4%69adylu599:45rst",
"qidgr=51t2o9jue84+9tdjue94+ey+9e",
"xvcegdplu4-6urrr>o49truy9&.-0X-8",
"jq=u<fusu994%9tdr9r9dr-oq>,rr&5e",
",key%rurere*o4tttratlu4%6,rydtt4",
"ax q:uyrel+909sa55tdjue94+etdzu4",
"@qws3&th9rX48,rt44t9uate:o4ttju9",
"tjrst<sgt+=5ees1,pzu+900sa59ttus",
"fzuu00sa5X1t2oq>9ryeX-8,rt;4pyrr",
"za2489rt;=lu4-6<yyye=65rs10pzsja",
"ruzs:O1h99au954%9tdj1t4o9>9rytrs",
"#hrst0lgtrrrye&.-0talu4%69ydyl+e",
"&r+900sa59r19-=825+9ju99:;9ttsX4",
"<gX48,rt;4py9,dtXxX4urre#.-9dy=5",
" q&55eg19tlsrrlu=y*5eusd9tzsq>1t",
"hlty2o9>0ryy55sr1+1t2o9=9uyt99lu",
"rslu4%6,rftg;5rrlXlu4%69yfyztrju",
"+eju794+9tds,pksh=jt994+9tds55rr",
"X-tyrr&.-e1r0trd9drrre&.-0tr45pd",
"=56es1fu4-6,rydz,grar9&%4tyt,rjs",
"tt2o9>aue84+9dys+jurrrdp2o9>9ty1",
"lu4%6,ryrt=o40er.5tteege4-69rftz",
"hue84-9tya>euat5,ayyhqsr994+wdys",
"rrre&.-01r,aadl4;9ydp6rrr9&.-e1r"
};
