/* XPM */
static char *result[] = {
/* columns rows colors chars-per-pixel */
"32 32 187 2 ",
"   c #273D3F",
".  c #31433E",
"X  c #4F593E",
"o  c #545D3C",
"O  c #60683F",
"+  c #1A4543",
"@  c #3F4F48",
"#  c #3E5B46",
"$  c #26694E",
"%  c #2D6C4F",
"&  c #346F4F",
"*  c #36704F",
"=  c #2E6A54",
"-  c #336B58",
";  c #3D7159",
":  c #425E47",
">  c #555B42",
",  c #4B4B54",
"<  c #504E5A",
"1  c #505159",
"2  c #475658",
"3  c #577E4D",
"4  c #42725C",
"5  c #4D7D52",
"6  c #567D51",
"7  c #45754D",
"8  c #60624F",
"9  c #434C63",
"0  c #555B6F",
"q  c #5B5A63",
"w  c #565E72",
"e  c #496E6B",
"r  c #436E66",
"t  c #4C716B",
"y  c #567768",
"u  c #596075",
"i  c #5E677C",
"p  c #577475",
"a  c #626169",
"s  c #6B6A70",
"d  c #706C76",
"f  c #706F78",
"g  c #667D79",
"h  c #7B7977",
"j  c #5C8653",
"k  c #5E8855",
"l  c #548253",
"z  c #65884D",
"x  c #648D56",
"c  c #6A8F5D",
"v  c #74835D",
"b  c #6F9354",
"n  c #729554",
"m  c #7D9B52",
"M  c #6D8B64",
"N  c #66866C",
"B  c #658866",
"V  c #738A6E",
"C  c #7A9369",
"Z  c #668273",
"A  c #6E8278",
"S  c #748F7E",
"D  c #7E9674",
"F  c #839F51",
"G  c #8BA24C",
"H  c #97AC4C",
"J  c #90A74E",
"K  c #9EB14A",
"L  c #85A050",
"P  c #97AC5D",
"I  c #AEBD44",
"U  c #A8B748",
"Y  c #B0BE4C",
"T  c #B1BD54",
"R  c #B2BD5D",
"E  c #8B937C",
"W  c #849874",
"Q  c #8A9C6A",
"!  c #99A668",
"~  c #98A564",
"^  c #91A375",
"/  c #A6AF63",
"(  c #A2A96B",
")  c #B4BC6E",
"_  c #AFBC7A",
"`  c #A7B07E",
"'  c #B5BC76",
"]  c #ACB767",
"[  c #B7C26A",
"{  c #B8C468",
"}  c #BCC67B",
"|  c #5E7380",
" . c #647485",
".. c #6C7D85",
"X. c #677489",
"o. c #6A768C",
"O. c #6F7B8A",
"+. c #667A81",
"@. c #7D7B82",
"#. c #717B8B",
"$. c #787F8D",
"%. c #827B84",
"&. c #7B8483",
"*. c #838386",
"=. c #838987",
"-. c #8B8A8D",
";. c #959484",
":. c #939F87",
">. c #888A94",
",. c #908F91",
"<. c #919092",
"1. c #9D9A9A",
"2. c #8B9689",
"3. c #98A28F",
"4. c #9CAE96",
"5. c #9CA898",
"6. c #A8AD85",
"7. c #AFB283",
"8. c #B6B78B",
"9. c #AAA998",
"0. c #A1B19A",
"q. c #BBBC93",
"w. c #BDBC99",
"e. c #B2B497",
"r. c #A59BA4",
"t. c #9EACA2",
"y. c #AEADA7",
"u. c #ACA9AA",
"i. c #A7A5A5",
"p. c #B2AFA7",
"a. c #ACB7A6",
"s. c #A7B4AA",
"d. c #B6B1AF",
"f. c #BDB9A6",
"g. c #B4ADB0",
"h. c #BBB3B4",
"j. c #BEBCBC",
"k. c #B7B5B8",
"l. c #C0BAAD",
"z. c #C2BAB1",
"x. c #C5B9BE",
"c. c #C1B6BB",
"v. c #B4C185",
"b. c #BFC79A",
"n. c #B9C1B5",
"m. c #C0C88A",
"M. c #C6CB9C",
"N. c #C3C994",
"B. c #CAD29A",
"V. c #CACDA8",
"C. c #CCD0AD",
"Z. c #D1D8AA",
"A. c #C2C2BF",
"S. c #DBE0BE",
"D. c #C9BFC3",
"F. c #C6C3C1",
"G. c #CDC3C6",
"H. c #CEC7CA",
"J. c #CCCECB",
"K. c #C8C8C4",
"L. c #D2CACC",
"P. c #D0C7CA",
"I. c #D7D7C5",
"U. c #D1D1CE",
"Y. c #DBDBCD",
"T. c #D5CFD1",
"R. c #D6D4D3",
"E. c #DDDCD4",
"W. c #DFDDDA",
"Q. c #D9D3D3",
"!. c #E1DEDB",
"~. c #DFE3C6",
"^. c #E2E5CA",
"/. c #E2E0DE",
"(. c #E8EADA",
"). c #DFDFE0",
"_. c #E3E0E0",
"`. c #E9E7E5",
"'. c #EAE9E5",
"]. c #EEECE9",
"[. c #F0EFEB",
"{. c #EFF0E5",
"}. c #F3F3ED",
"|. c #F7F7F0",
" X c #F8F8F2",
".X c #F8F7F2",
"XX c None",
/* pixels */
"XXXXXXXXXXXXXXXXXXXXXXXXXXXXXXXX< 1.XXK.XXXXXXXXXXXXXXXXXXXXXXXX",
"XXXXXXXXXXXXXXXXXXXXXXXXXXXXs <.|.^.I ! u XXXXXXXXXXXXXXXXXXXXXX",
"XXXXXXXXXXXXXXXXXXXXXXXXXX-. X X(.[ I ! w XXXXXXXXXXXXXXXXXXXXXX",
"XXXXXXXXXXXXXXXXXXXX@.*.-. X X|./.I.I ! i XXXXXXXXXXXXXXXXXXXXXX",
"XXXXXXXXXXXXXXXX*.<.'. X X X X}.I.C.I ! o.u XXXXXXXXXXXXXXXXXXXX",
"XXXXXXXXXXXXXX-.!.}._.].}.}.{.S.I I U Q o.u XXXXXXXXXXXXXXXXXXXX",
"XXXXXXXXXXXX<.W._._._././._.E.I I U G B +.s XXXXXXXXXXXXXXXXXXXX",
"XXXXXXXXXXXXU.`._._.R.R.R._.!.N.I K x x Z o.w XXXXXXXXXXXXXXXXXX",
"XXXXXXXXXXXXU.`._._.!.w.q.V.k.E.b.G x M $.#.w XXXXXXXXXXXXXXXXXX",
"XXXXXXXXXXXXU.`._._.'.~.S.I P a.4.x M *.;.E w XXXXXXXXXXXXXXXXXX",
"XXXXXXXXXXXXU.`././._.Z.Z.~.I J x x V ;.7.p.@.XXXXXXXXXXXXXXXXXX",
"XXXXXXXXXXXXU.'././.V.T I B.R e.x y E 7.l.P.H.j.@.XXXXXXXXXXXXXX",
"XXXXXXXXXXXXg.'.`.!.{ I I T f.W j y 1.l.H.W._._.J.@.XXXXXXXXXXXX",
"XXXXXXXXXXXXr.P.'.`.{ I I T h.k & A h.f.C._._._._.T.@.XXXXXXXXXX",
"XXXXXXXXXXXXr.8.} '.{ I I I ] k g h.l.N.W.!._._._._.R.f XXXXXXXX",
"XXXXXXXXXXj.B.Y I Y.{.{ I I n n U R N.!._._._._._._._.f XXXXXXXX",
"XXXXXXXXj.'._.v.Y T E.}./.U k 3 I m.`.|. X|.].t.4 4 4  .XXXXXXXX",
"XXXXXX-.F.[._./.!.} Y }.W.x k S }.}.^.I Y q.x.3.g e  .o.o.XXXXXX",
"XXXXd. X X X'._._._.D.x.c x $ 6 R R R R q.x.x.x.r.$.o.o.o.XXXXXX",
"XXq A. X X|.`._._._.F.c.D x $ y h.x.x.x.x.x.x.c.D.3...o. .= XXXX",
"XXu. X X|.'._._.E.U.h.c.D.D $ 4 5.P.P.P.G.G.G.j.d.g.>.o.- $ XXXX",
"a A.|.}.'./._.Y.' n x y.u.i.- s.|.[.[.]._.Q.J.4.x j  .X.e r $ XX",
"1.|.`.`.'.'.Y._ n x x N t t.s.]._._._._.R.4.x j l z W g o.o.e XX",
":.~.~.~.~.^.v.n x x N O.k.[.[._._._._.R.0.x W 2.C U K j X.o.o.9 ",
"L I I I I I F x x N p o.|.)._._._._.R.0.D ^ 7.w.) I m x p o.o.X.",
"M / I ' ) I 6.C l p = Z }._._._._.R.a.5.9.' I I I I m x &  .X.O.",
"j.h 7.l.f.w.z.y.y $ 5 x |._._.!.L.F.u.x.b.I I I I H n x & e X.#.",
"XXXXd %.%.%.%.%.2 + # : R.H.L.H.x.x.x.D.f.' I I H n x 5 % $ o.#.",
"XXXX*.XXXXXXXXXXXXXXXXXXL.D.h.r.9.8.r.1.:.Q L L n G z % $ G O.~ ",
"XXXXXXXXXXJ.XXXXXXXXXXXX%.Q.1.( ;./ *.B x x x x x K z G 7 U O.O ",
"XXXXXXXXXXXX).XXXXXXXXXXXXf , > 1 8 < , =.=.=.=.=.X . X   o XXXX",
"XXXXXXXXXXXXXXXXXXXXXXXXXXXXXXXXXXXXXXXXXXXXXXXXXXXXXXXXXXXXXXXX"
};
