/* XPM */
static char *result[] = {
/* columns rows colors chars-per-pixel */
"32 32 23 1 ",
"  c #5F534E",
". c #634D4D",
"X c #68564F",
"o c #68605C",
"O c #756163",
"+ c #707863",
"@ c #787670",
"# c #84705E",
"$ c #897A6B",
"% c #937A6E",
"& c #807077",
"* c #89817A",
"= c #908570",
"- c #968B81",
"; c #909380",
": c #929292",
"> c #A0958D",
", c #A9A198",
"< c #B3A69E",
"1 c #AFAFA1",
"2 c #B5B2A8",
"3 c #B0B0B3",
"4 c #BCB6B0",
/* pixels */
"*:<443:*-------------**-=#OO%<1,",
"o@>442>:><<<<<<<<<<<,>::-%%%>242",
" +>441>;>>,,,,,<1<,,>:;;%&&%>441",
" +>42<>%%->>>>>,1,>>>-%%&&&%>421",
" +>41>-%%%;::::><>:::%%%&OO&>421",
"o+>41>-%%%%;:>>>>>>>>;%%&OO&-121",
"o+>41>-%%%%%:><>:>11,>;%#XXO%<22",
"o+:21<-%%%%%:>,>;>,<<>>-&X.O*>14",
"O+;121-%%%%%::>;%;>,1<>:&X.O$:12",
"+@;121-%%%%-:::-%->,11,>*XXO$:<2",
"+*>22<-%%%%;:::;->,<11,;&OO&*:,1",
"@*,41,-%%%;::::::>1111>-&OO&%:>,",
"+*,41>-%%%-;;;:::,111,>%&OO&->,,",
"O*,41>-%%%%%%-:::,11<>:%&OO&-><,",
"O-,41,-%%%%%%%;::><1<>;%&OO&><1,",
"O:<44<-%%%%%%%-;:>,<<>;%&OO&><,>",
"@>1441>%%%%%%%%-::>,<>;%&OO&><>;",
"$>1443>%%%%%%%%-:>>>>:-%&OO&;1,:",
"*>1443>%%%%%-;;;:>,>>-%%&OOO-21,",
"*>1443>%%%%-::::>,<>:%%%&OOO-42,",
"$:,243>%%%%;>>:>>,1,>;%%&OOO-42,",
"@->123>%%%;>,>:><111,>-%&OOO-42,",
"+*>143>%%%;><,>,1<,<<>>-&OOO-111",
"O*>443>%%%;><<,<1,>,1,>:*OOO*>11",
"O-,441-%%%;>,<<11>>,11,>*OOO$:12",
"O:<44<-%%%%;>>>,1,,<11,>*OOO*>12",
"@>141,-%%%%-:::,11<111,>*OOO*,22",
"@>142<%&%%%%::>,111111,>*OOO-<22",
"@>144<%&&%%%:>,<111111>-&OO&-<22",
"@>1441*O&%%%;><1111111>%&OO&><22",
"O:<441*OO&%%%:>>>,1,,<>%&OO&><22",
"O-,441*OOO&%%-::>,<>>,>%&OO&><22"
};
