/* XPM */
static char *result[] = {
/* columns rows colors chars-per-pixel */
"32 59 42 1 ",
"  c #3D593F",
". c #326329",
"X c #326B2A",
"o c #3B712A",
"O c #425929",
"+ c #454836",
"@ c #506929",
"# c #3E4144",
"$ c #4D4445",
"% c #4B5846",
"& c #5F534E",
"* c #594C57",
"= c #634D4D",
"- c #68564F",
"; c #486942",
": c #556A48",
"> c #4A7442",
", c #5D7755",
"< c #68605C",
"1 c #65785D",
"2 c #756163",
"3 c #7A6C69",
"4 c #707863",
"5 c #787670",
"6 c #84705E",
"7 c #897A6B",
"8 c #937A6E",
"9 c #807077",
"0 c #70886A",
"q c #87875D",
"w c #88936E",
"e c #89817A",
"r c #968B81",
"t c #909380",
"y c #929292",
"u c #A0958D",
"i c #A9A198",
"p c #B3A69E",
"a c #AFAFA1",
"s c #B5B2A8",
"d c #B0B0B3",
"f c #BCB6B0",
/* pixels */
"qwwwwwwqqq04140qq0qwwwwwwwwwwwww",
"aasfssaiiiiutyiiiiaassssssssssss",
"sssaapiuipaiuiasssaaaasssssssfff",
"fapuyyyyuupppasfffauyuipppppasff",
"ur8e77e8rruuutrrrrre7eerruuuuuup",
"9922229999999922222222229999998u",
"22-==-2222222222222222222222229r",
"22----2222222222222222222222222r",
"99699e9999999999999eeeee9999999u",
"888ryutr8888888888ryuuuur888888u",
"88tuuiiuuytttr888ruuiiiiuuuuuyyi",
"8tuupaaaiuuuuyr8tuuiaaaaaapiiuup",
"yuipaaaaappppuuyuipaaaaaaaiuuipa",
"yuapiipaaaapiuuuiapiipaaaaiuuuia",
"yuaiuuiaaapiuuipaaiuuipaaaapiuup",
"uuuutruuiiuuyuuiiapiuiaaaaiiutri",
"puyt88ryyyyyyyyuupaaaaaaaauut88u",
"uuuutrtyyyytrrtyuuipaiiipauyt88u",
"yupiuyyyyytr88tyyyuipuyuipuyr88u",
"yuuuyyyytr8888tyuuippuyyuuyr888u",
"yyyyyyyyt88888ryuippiuyyyt88888u",
"yt888rtyt888888rtuuuutr88888999r",
"t888888tr88888888tttt8888889922r",
"8888888888888888888888888892222y",
"8888888888888888888888889922222y",
"8888888888888888888888899222222y",
"rrrrrrrrrrrruuuuuuuurrr88eeeeeei",
"uuupaapiuuipadddddddapippaaaaaas",
"aaaasssaaaaffffffsffffasffffffsf",
"fffsaasfffffffffsaaffffffffffaas",
"uuuyttuiiiipaaaaiuuuipaaaapiuuuu",
"444445eeeeryuuuuyreeryuuuuyreeee",
"&<<<2445422257ee7542225555222554",
"$*<<<<<<%*$$$*<4<<%*$$$$$$$$*<4<",
"*%<<<<<<<-&%*<454<<-&%*$$$$*<454",
"<<<<<<<44442<57e754334<<&*&<45e5",
"<<<<<<<445eeeeeeeeerrrreee755554",
"<<&%%&<<45eryre777eruuuuuyre54<<",
"**$$$*%<<45552<&&&<27ruur754<&*%",
"$$$$$$%<<<<<<&*$$$**<7tr74<<%*$#",
"$$$$*&<<<<<<<<<%%%***2ee54<<<%%%",
"$$$*%<<<<<<2555552<<2377555554<<",
"%%%&<<<<<<45eertreerre55eertree5",
"%%<&%%%<<-<<47ryreeee5<<247eeee5",
"$*<%$$*<%*$$*<5ee54<<&*$$*&<57e5",
"$*<%$$$******<7re4<<<&**&&&<<554",
"$*<%$$$$$%<<<5rue544<<<<<<<<<<44",
"*%<%%*%&<255eeeee75554<25555544<",
"<<<<<<<257erur945eeee535eeee74<<",
"******&<<25432-&&<<<25eee54<-&&$",
"$$$$$$*<<<&*$$$$$$$$*5tr7<&*$$$#",
"$$$$$$*<<<<%%%&-&%*$*2ee5<<-&%*$",
"$$$$$$*<<<<<<<442<<&&2752<<44<<%",
"*$$$*%%<<<<<<45e755555544<5754<<",
"&*$$*%%%%<<<<47eeeee54<<<<4e554<",
"&*$$$$$$*%<%*<5ee542<&****<4444<",
"&*$#++#$$*%%%-4752<<:%$$$$&:<<4<",
"&*$+OO $$$%%@>,4<<<;;%$$$$  ;,2&",
"&%+ .. $#+ .@><<<<:;@. ++ OXo;::"
};
