/* XPM */
static char *result[] = {
/* columns rows colors chars-per-pixel */
"32 32 48 1 ",
"  c #305785",
". c #355C8A",
"X c #385A8E",
"o c #3E6494",
"O c #3E6A93",
"+ c #3E6598",
"@ c #426696",
"# c #436C94",
"$ c #436799",
"% c #456A9C",
"& c #496E9E",
"* c #457095",
"= c #46709C",
"- c #4E739D",
"; c #476EA0",
": c #4B6EA0",
"> c #4E72A3",
", c #4E75A9",
"< c #4F79A9",
"1 c #5275A5",
"2 c #5D77A7",
"3 c #5479A5",
"4 c #5D7CA3",
"5 c #5477A9",
"6 c #5679AA",
"7 c #5B7CAC",
"8 c #5D7EB1",
"9 c #5D7FBF",
"0 c #617EAE",
"q c #617FB1",
"w c #5E81AE",
"e c #5E81B1",
"r c #6381AD",
"t c #6489AE",
"y c #6383B3",
"u c #6A86B6",
"i c #6689B5",
"p c #698BB5",
"a c #6687B8",
"s c #6987B8",
"d c #6789B9",
"f c #6B8CBA",
"g c #6D94B5",
"h c #6E90BB",
"j c #7290BF",
"k c #6886C7",
"l c #7292C1",
"z c #7598C2",
/* pixels */
"1wihli6<6eihzdsq665,6edlldaq756>",
"w66we6>>wwywe8qqyae6eeeeee888sfp",
"6-%+%6ww6>&->177yae5,>>>>36qydpi",
">>%%%->-%++&1138y75<;o+%;,68y63-",
"-><3>ww63><3167aly86<>>1557aliw3",
"31<6wew<>111>;:566,35<><>>>16668",
"13>=>>>><3wyy51:575,,77y85,>3677",
">>>->3www7yyyy7336ee77asa7763378",
"3<136dfieweyy7r0110u000r7r001300",
">>-&->>>#%>31170021-$-11>3700--&",
"6weey>-%%>333317fh7%@&111-3yfhuy",
"66wyi>>>6ee63w37pfr3707w777rfpia",
"<>:&%><7hlfyy6711&>7aziew71>--30",
">-%&>7676378e3>$o@175677651%X*17",
"8dsay878e5,,:&1>&1777155<&1:1-4d",
"yfldy778w3551,55:,6yq61&%:55-36e",
"&>>,>>&,51,1>:>>&&:55::$%:6611->",
"765776>125>:%;:>>555157q8555603>",
"q7788q555566525565q758aaay870y7,",
"yqqqa7:%:,8yyqq751:11:15yaaq005;",
"la7511%&28qyqaafy51158allfy7721>",
"877yujla88877675:1,6ayq878qqqujl",
"167yyyy07731151:6aa5::::1570qqyy",
"&6ry773111::5557qsa6>$$%::6yu065",
"60upu717y736358q87515>56668slq01",
"&&53503yjja0515566761:,3::::7278",
"71157777aiu7361,,17617eyq71,1208",
"51&137736ry731:>:;5758eiay8112q5",
"&&&-3500yff7333667afeeeey7032108",
" .@-1113>::>5<>*@#-#O=>31-2001,,",
".o-7ufr67751>1-wpgw*+;;;,17yipa9",
"X@-7ypy77753733wtt3-8e98887rppuk"
};
